<svg
  viewBox="0 0 32 32"
  xmlns="http://www.w3.org/2000/svg"
>
  <path
    d="M24 30.313H7.937C7.06167 30.313 6.23867 30.1463 5.468 29.813C4.718 29.5003 4.05667 29.0577 3.484 28.485C2.91133 27.9123 2.45833 27.2403 2.125 26.469C1.79167 25.6977 1.625 24.8747 1.625 24V16.469C1.64567 14.9897 1.96333 13.6147 2.578 12.344C3.19267 11.0733 4.02067 10.0003 5.062 9.12501V9.09401L11.875 3.21901C12.4377 2.73967 13.0783 2.35934 13.797 2.07801C14.5157 1.79667 15.271 1.65601 16.063 1.65601C16.8757 1.65601 17.6413 1.79667 18.36 2.07801C19.0787 2.35934 19.7193 2.73967 20.282 3.21901L27.032 9.18801C28.0527 10.1047 28.8653 11.1983 29.47 12.469C30.0747 13.7397 30.3767 15.1147 30.376 16.594V24.094C30.376 24.9693 30.204 25.782 29.86 26.532C29.516 27.282 29.063 27.9383 28.501 28.501C27.9177 29.0637 27.2457 29.5063 26.485 29.829C25.7243 30.1517 24.917 30.313 24.063 30.313H24ZM20 28.313H24.031C24.6143 28.313 25.1663 28.2037 25.687 27.985C26.2077 27.7663 26.666 27.4693 27.062 27.094C27.458 26.7187 27.7757 26.2707 28.015 25.75C28.2543 25.2293 28.374 24.6773 28.374 24.094V16.563C28.374 15.3963 28.1343 14.3077 27.655 13.297C27.1757 12.2863 26.5297 11.427 25.717 10.719L18.936 4.75001C18.5607 4.41667 18.1283 4.15634 17.639 3.96901C17.1497 3.78167 16.6237 3.68801 16.061 3.68801C15.519 3.68801 14.998 3.78167 14.498 3.96901C13.998 4.15634 13.5603 4.41667 13.185 4.75001L6.372 10.656C5.55933 11.3853 4.91333 12.255 4.434 13.265C3.95467 14.275 3.715 15.3637 3.715 16.531V24.094C3.73567 25.2607 4.16267 26.2553 4.996 27.078C5.82933 27.9007 6.82933 28.312 7.996 28.312H19.996L20 28.313ZM22.281 24.531C22.281 24.2603 22.1873 24.026 22 23.828C21.8127 23.63 21.573 23.531 21.281 23.531H10.656C10.3853 23.531 10.151 23.63 9.953 23.828C9.755 24.026 9.656 24.2603 9.656 24.531C9.656 24.8017 9.755 25.036 9.953 25.234C10.151 25.432 10.3853 25.531 10.656 25.531H21.344C21.594 25.5103 21.8127 25.4113 22 25.234C22.1873 25.0567 22.281 24.8327 22.281 24.562V24.531Z"
  />
</svg>